<?xml version="1.0" encoding="UTF-8" standalone="no"?>
<svg
   width="1317.4064"
   height="178.51999"
   viewBox="-614.90002 -102.82001 1317.4064 178.51999"
   preserveAspectRatio="xMidYMid"
   version="1.1"
   id="svg1281"
   sodipodi:docname="tara-movies-text.svg"
   inkscape:version="1.1 (c4e8f9ed74, 2021-05-24)"
   xmlns:inkscape="http://www.inkscape.org/namespaces/inkscape"
   xmlns:sodipodi="http://sodipodi.sourceforge.net/DTD/sodipodi-0.dtd"
   xmlns="http://www.w3.org/2000/svg"
   xmlns:svg="http://www.w3.org/2000/svg">
  <sodipodi:namedview
     id="namedview1283"
     pagecolor="#ffffff"
     bordercolor="#666666"
     borderopacity="1.0"
     inkscape:pageshadow="2"
     inkscape:pageopacity="0.0"
     inkscape:pagecheckerboard="0"
     showgrid="false"
     fit-margin-top="0"
     fit-margin-left="23.78818"
     fit-margin-right="23.78818"
     fit-margin-bottom="0"
     inkscape:zoom="0.73592321"
     inkscape:cx="659.03615"
     inkscape:cy="83.568502"
     inkscape:window-width="1920"
     inkscape:window-height="1052"
     inkscape:window-x="1920"
     inkscape:window-y="591"
     inkscape:window-maximized="1"
     inkscape:current-layer="svg1281" />
  <defs
     id="defs1271">
    <filter
       id="editing-hole"
       x="-0.0076884265"
       y="-0.061022121"
       width="1.0169786"
       height="1.1347572">
      <feFlood
         flood-color="#000000"
         result="black"
         id="feFlood1258" />
      <feMorphology
         operator="dilate"
         radius="2"
         in="SourceGraphic"
         result="erode"
         id="feMorphology1260" />
      <feGaussianBlur
         in="erode"
         stdDeviation="4"
         result="blur"
         id="feGaussianBlur1262" />
      <feOffset
         in="blur"
         dx="2"
         dy="2"
         result="offset"
         id="feOffset1264" />
      <feComposite
         operator="atop"
         in="offset"
         in2="black"
         result="merge"
         id="feComposite1266" />
      <feComposite
         operator="in"
         in="merge"
         in2="SourceGraphic"
         result="inner-shadow"
         id="feComposite1268" />
    </filter>
  </defs>
  <g
     filter="url(#editing-hole)"
     id="g1277"
     transform="translate(-207.19684,-93.950003)">
    <g
       transform="translate(-374.415,153.66)"
       id="g1275">
      <path
         d="m 117.58,-135.64 v 0 0 q 0,4.49 -9.47,4.49 v 0 H 85.45 V 0 h -50 V -131.15 H 20.8 v 0 q -7.52,0 -10.35,0.68 v 0 0 q -3.71,0.78 -5.37,0.78 v 0 0 q -4.98,0 -4.98,-3.9 v 0 0 q 0,-4.59 9.67,-4.59 v 0 h 87.11 v 0 q 6.73,0 9.96,-0.59 v 0 0 q 3.9,-0.68 5.86,-0.68 v 0 0 q 4.88,0 4.88,3.81 z M 203.22,0 v -6.45 0 q -12.5,8.31 -27.73,8.31 v 0 0 q -20.22,0 -32.42,-10.16 v 0 0 q -12.7,-10.45 -12.7,-29 v 0 0 q 0,-16.41 12.6,-26.96 v 0 0 q 12.89,-10.64 33.89,-10.64 v 0 0 q 14.06,0 26.36,5.37 v 0 -26.86 0 q -8.88,-2.54 -15.67,-2.54 v 0 0 q -6.79,0 -11.48,0.59 v 0 0 q -4.68,0.59 -8.88,1.76 v 0 0 q -9.08,2.54 -13.77,6.83 v 0 0 q -2.74,2.54 -4.98,2.54 v 0 0 q -2.25,0 -3.42,-1.12 v 0 0 q -1.17,-1.12 -1.17,-2.49 v 0 0 q 0,-1.37 0.49,-2.49 v 0 0 q 0.48,-1.12 1.85,-2.3 v 0 0 q 2.93,-2.53 9.77,-5.07 v 0 0 q 14.16,-5.37 28.42,-5.37 v 0 0 q 43.35,0 55.37,20.7 v 0 0 q 5.27,9.18 5.27,24.12 v 0 V 0 Z m 0,-14.84 v -47.07 0 q -12.3,-5.96 -24.51,-5.96 v 0 0 q -1.95,0 -3.71,0.29 v 0 62.11 0 q 0.49,0.1 1.07,0.1 v 0 0 q 0.59,0 1.18,0 v 0 0 q 13.38,0 25.97,-9.47 z M 275.59,0 v -104.3 h 41.99 v 30.67 0 q 6.74,-16.7 14.5,-24.56 v 0 0 q 7.76,-7.86 15.58,-7.86 v 0 0 q 4.39,0 6.98,2.29 v 0 0 q 2.59,2.3 2.59,5.13 v 0 0 q 0,2.83 -0.78,4.49 v 0 0 q -0.79,1.66 -2.06,2.83 v 0 0 q -2.63,2.44 -4.98,2.44 v 0 0 q -3.71,0 -5.46,-0.78 v 0 0 q -3.03,-1.37 -5.38,-1.37 v 0 0 q -2.34,0 -5.95,3.76 v 0 0 q -3.62,3.76 -6.94,10.4 v 0 0 q -8.1,16.22 -8.1,35.16 v 0 V 0 Z m 159.57,0 v -6.45 0 q -12.5,8.31 -27.74,8.31 v 0 0 Q 387.21,1.86 375,-8.3 v 0 0 q -12.7,-10.45 -12.7,-29 v 0 0 q 0,-16.41 12.6,-26.96 v 0 0 q 12.89,-10.64 33.89,-10.64 v 0 0 q 14.06,0 26.37,5.37 v 0 -26.86 0 q -8.89,-2.54 -15.68,-2.54 v 0 0 q -6.78,0 -11.47,0.59 v 0 0 q -4.69,0.59 -8.89,1.76 v 0 0 q -9.08,2.54 -13.77,6.83 v 0 0 q -2.73,2.54 -4.98,2.54 v 0 0 q -2.24,0 -3.42,-1.12 v 0 0 q -1.17,-1.12 -1.17,-2.49 v 0 0 q 0,-1.37 0.49,-2.49 v 0 0 q 0.49,-1.12 1.86,-2.3 v 0 0 q 2.92,-2.53 9.76,-5.07 v 0 0 q 14.16,-5.37 28.42,-5.37 v 0 0 q 43.36,0 55.37,20.7 v 0 0 q 5.27,9.18 5.27,24.12 v 0 V 0 Z m 0,-14.84 v -47.07 0 q -12.31,-5.96 -24.52,-5.96 v 0 0 q -1.95,0 -3.71,0.29 v 0 62.11 0 q 0.49,0.1 1.08,0.1 v 0 0 q 0.58,0 1.17,0 v 0 0 q 13.38,0 25.98,-9.47 z m 104.78,16.3 v 0 q -1.85,-0.19 -2.83,-1.66 v 0 0 q -0.98,-1.46 -0.78,-3.22 v 0 0 q 0.49,-3.03 1.85,-5.56 v 0 0 q 1.37,-2.54 2.01,-3.81 v 0 0 q 0.63,-1.27 1.31,-2.84 v 0 l 3.71,-8.59 40.14,-120.21 43.17,83.39 41.89,-83.39 L 720.51,0 h -52.44 l -24.22,-74.61 -37.5,78.13 -39.46,-70.32 -13.67,42.68 v 0 q -3.22,7.13 -4.59,12.11 v 0 0 q -1.36,4.98 -2.24,7.71 v 0 0 q -1.96,6.16 -6.45,5.76 z m 190.92,-54.19 v 0 0 q 0,-11.72 4.25,-21.34 v 0 0 q 4.25,-9.62 11.67,-16.75 v 0 0 q 16.01,-15.23 40.23,-15.23 v 0 0 q 24.71,0 40.24,15.82 v 0 0 q 14.84,14.94 14.84,37.79 v 0 0 q 0,22.95 -15.23,38.38 v 0 0 Q 811.13,1.86 786.62,1.86 v 0 0 q -23.92,0 -39.65,-15.14 v 0 0 q -16.11,-15.63 -16.11,-39.45 z m 53.03,-46.1 v 93.36 0 q 0.78,0.1 1.56,0.1 v 0 h 1.37 v 0 q 19.72,0 33.1,-12.21 v 0 0 q 14.26,-13.18 14.26,-34.57 v 0 0 q 0,-20.9 -13.38,-33.89 v 0 0 q -13.18,-12.89 -34.08,-12.89 v 0 h -1.47 v 0 q -0.68,0 -1.36,0.1 z M 904.2,4.39 850.59,-104.3 h 44.23 l 26.57,54.79 16.7,-33.2 v 0 q 5.17,-10.65 6.49,-15.83 v 0 0 q 1.32,-5.17 2.64,-6.34 v 0 0 q 1.32,-1.17 3.22,-1.17 v 0 0 q 1.9,0 2.98,1.26 v 0 0 q 1.07,1.27 1.07,2.54 v 0 0 q 0,1.27 -0.24,2.54 v 0 0 q -0.25,1.27 -0.93,3.42 v 0 0 q -1.46,4 -6.15,13.87 v 0 z m 87.79,-125.78 v 0 0 q -10.06,0 -15.72,-4.49 v 0 0 q -5.66,-4.49 -5.66,-11.82 v 0 0 q 0,-6.15 6.25,-10.54 v 0 0 q 6.64,-4.69 14.06,-4.69 v 0 0 q 7.42,0 11.47,1.47 v 0 0 q 4.06,1.46 6.89,3.8 v 0 0 q 5.66,4.79 5.66,11.14 v 0 0 q 0,6.34 -6.44,10.74 v 0 0 q -6.45,4.39 -16.51,4.39 z M 971.48,0 v -104.3 h 42 V 0 Z m 164.56,-23.73 v 0 0 q 3.8,0 3.8,3.52 v 0 0 q 0,2.63 -3.41,6.25 v 0 0 Q 1121,1.86 1094.14,1.86 v 0 0 q -24.12,0 -40.62,-14.56 v 0 0 q -17.09,-15.13 -17.09,-38.28 v 0 0 q 0,-23.63 15.43,-38.86 v 0 0 q 16.3,-16.21 43.35,-16.21 v 0 0 q 21.68,0 36.43,13.18 v 0 0 q 15.92,14.16 15.92,37.21 v 0 0 q 0,3.32 -0.2,7.03 v 0 h -64.45 v 41.89 0 q 6.64,1.37 14.94,1.37 v 0 0 q 17.58,0 29.98,-11.62 v 0 0 q 2.54,-2.54 3.62,-4.01 v 0 0 q 2.24,-2.73 4.59,-2.73 z m -26.08,-32.03 v -41.31 0 q -6.35,-1.86 -14.35,-1.86 v 0 0 q -8.01,0 -12.7,1.08 v 0 42.09 z m 54.79,42.67 v 0 0 q 0,-1.46 1.02,-2.68 v 0 0 q 1.03,-1.22 2.69,-1.22 v 0 0 q 1.66,0 2.73,0.97 v 0 0 q 0,0 2.44,2.25 v 0 0 q 10.16,8.89 28.42,8.89 v 0 0 q 12.31,0 15.82,-5.08 v 0 0 q 0.98,-1.37 0.98,-2.78 v 0 0 q 0,-1.42 -0.54,-2.74 v 0 0 q -0.54,-1.32 -2.29,-3.22 v 0 0 q -1.76,-1.91 -4.98,-4.54 v 0 l -8.6,-6.94 v 0 q -21.29,-16.6 -29.2,-26.95 v 0 0 q -7.22,-9.47 -7.22,-19.33 v 0 0 q 0,-12.41 11.42,-20.81 v 0 0 q 11.82,-8.78 30.57,-8.78 v 0 0 q 13.18,0 20.8,3.02 v 0 0 q 7.62,3.03 10.74,5.52 v 0 0 q 3.13,2.49 3.13,4.54 v 0 0 q 0,4.2 -3.32,4.2 v 0 0 q -1.57,0 -2.89,-1.12 v 0 0 q -1.31,-1.13 -5.22,-3.81 v 0 0 q -3.91,-2.69 -10.35,-4.25 v 0 0 q -6.45,-1.56 -12.01,-1.56 v 0 0 q -5.57,0 -7.86,1.76 v 0 0 q -2.3,1.75 -2.3,3.46 v 0 0 q 0,1.71 0.68,3.23 v 0 0 q 0.69,1.51 2.54,3.56 v 0 0 q 4.3,5.08 13.77,12.01 v 0 0 q 9.48,6.94 16.02,12.7 v 0 0 q 6.54,5.76 10.25,10.64 v 0 0 q 6.74,8.79 6.74,17.77 v 0 0 q 0,8.99 -3.32,15.39 v 0 0 q -3.32,6.39 -9.47,10.98 v 0 0 q -12.99,9.87 -34.67,9.87 v 0 0 q -17.38,0 -29,-6.65 v 0 0 q -7.52,-4.19 -7.52,-8.3 z"
         fill="#000000"
         id="path1273" />
    </g>
  </g>
  <style
     id="style1279">text {
  font-size: 64px;
  font-family: Arial Black;
  dominant-baseline: central;
  text-anchor: middle;
}</style>
</svg>
