<?xml version="1.0" encoding="UTF-8" standalone="no"?>
<!-- Created with Inkscape (http://www.inkscape.org/) -->

<svg
   width="241.73836mm"
   height="241.73836mm"
   viewBox="0 0 241.73835 241.73836"
   version="1.1"
   id="svg312"
   inkscape:version="1.1 (c4e8f9ed74, 2021-05-24)"
   sodipodi:docname="tara-software-logo.svg"
   xmlns:inkscape="http://www.inkscape.org/namespaces/inkscape"
   xmlns:sodipodi="http://sodipodi.sourceforge.net/DTD/sodipodi-0.dtd"
   xmlns="http://www.w3.org/2000/svg"
   xmlns:svg="http://www.w3.org/2000/svg">
  <sodipodi:namedview
     id="namedview314"
     pagecolor="#ffffff"
     bordercolor="#666666"
     borderopacity="1.0"
     inkscape:pageshadow="2"
     inkscape:pageopacity="0.0"
     inkscape:pagecheckerboard="0"
     inkscape:document-units="mm"
     showgrid="false"
     fit-margin-top="0"
     fit-margin-left="23.78818"
     fit-margin-right="23.78818"
     fit-margin-bottom="0"
     inkscape:zoom="0.54488788"
     inkscape:cx="185.35924"
     inkscape:cy="353.28369"
     inkscape:window-width="1920"
     inkscape:window-height="1052"
     inkscape:window-x="1920"
     inkscape:window-y="591"
     inkscape:window-maximized="1"
     inkscape:current-layer="layer1" />
  <defs
     id="defs309" />
  <g
     inkscape:label="Capa 1"
     inkscape:groupmode="layer"
     id="layer1"
     transform="translate(17.434799,-12.81989)">
    <path
       style="fill:#00c9de;stroke-width:0.296374"
       d="m 188.36923,148.75127 -1.90427,-3.3644 -1.77277,-2.81555 -1.77276,-2.81554 -2.10225,-2.81426 -2.10225,-2.81427 -3.70467,-3.71896 -3.70467,-3.71897 -3.26011,-2.60297 -3.26011,-2.60297 -4.14923,-2.74796 -4.14923,-2.74796 -4.00104,-2.36525 -4.00105,-2.36526 -7.26115,-3.95249 -7.26115,-3.9525 -4.29742,-2.43041 -4.29742,-2.430405 -2.81555,-1.704136 -2.81555,-1.704134 -3.26011,-2.232301 -3.26011,-2.232304 -2.51917,-1.948822 -2.51918,-1.948826 -3.65989,-3.564349 -3.65988,-3.564346 -2.007755,-2.519176 -2.00776,-2.519176 -1.64918,-2.536354 -1.64917,-2.536353 -1.18769,-2.205625 -1.18768,-2.205624 -1.36985,-3.408297 -1.36984,-3.408296 -0.87844,-3.111923 -0.87844,-3.111924 -0.710673,-3.852857 -0.710666,-3.852857 -0.358861,-4.251782 -0.358864,-4.251782 0.189196,-9.825965 0.189193,-9.825965 0.182854,-1.67404 0.182854,-1.674041 2.828377,3.452282 2.82838,3.452282 2.88566,3.265217 2.88565,3.265216 2.32794,2.221568 2.327945,2.221567 1.92642,1.607386 1.92643,1.607386 4.66498,3.474785 4.66498,3.474786 6.15266,4.045472 6.15266,4.045473 8.44665,5.55959 8.44664,5.55959 4.16787,3.122667 4.16787,3.122666 3.24148,2.769357 3.24147,2.769356 3.31051,3.36318 3.31052,3.36318 2.31418,2.812615 2.31418,2.812616 1.84769,2.582063 1.8477,2.582066 1.81517,3.041288 1.81518,3.041286 1.73194,3.478934 1.73194,3.478936 1.16998,2.96373 1.16999,2.96374 1.1994,3.70467 1.19941,3.70467 0.73943,2.96374 0.73943,2.96373 0.60328,2.96374 0.60328,2.96374 0.749,5.18654 0.749,5.18653 0.46735,5.83626 0.46736,5.83626 -0.092,1.23281 -0.092,1.23281 z"
       id="path626" />
    <path
       style="fill:#00b2c3;stroke-width:0.296374"
       d="m 192.23622,207.92248 -3.63936,-4.86902 -2.62473,-3.00649 -2.62473,-3.00648 -3.018,-2.79495 -3.01801,-2.79495 -2.41015,-1.87225 -2.41015,-1.87226 -2.18773,-1.55193 -2.18773,-1.55193 -1.90244,-1.16442 -1.90243,-1.16441 -3.46736,-1.86864 -3.46737,-1.86863 -3.11192,-1.42602 -3.11192,-1.42602 -2.96374,-1.18563 -2.96374,-1.18563 -5.55531,-1.87546 -5.55531,-1.87546 -5.70689,-1.62316 -5.70688,-1.62315 -9.0394,-2.40826 -9.03939,-2.40825 -5.038355,-1.44792 -5.03834,-1.44792 -4.42588,-1.51071 -4.425874,-1.51071 -4.020773,-1.63934 -4.020774,-1.63934 -3.919675,-2.02666 -3.919677,-2.02666 -3.339286,-2.1724 -3.339289,-2.17241 -2.95665,-2.3508 -2.95665,-2.35078 -2.528453,-2.55069 -2.528452,-2.55068 -1.877785,-2.3348 -1.877787,-2.33482 -1.698861,-2.54404 -1.698862,-2.54405 -1.523544,-2.68112 -1.523541,-2.68112 -1.494461,-3.35404 -1.494461,-3.35404 -1.503198,-4.33792 -1.503201,-4.33792 -1.150784,-4.741978 -1.150783,-4.741978 -0.60125,-3.556483 -0.60125,-3.556484 -0.442427,-3.556483 -0.442426,-3.556484 -0.299989,-3.556483 -0.299989,-3.556484 -0.0031,-2.026229 -0.0031,-2.026233 4.075137,3.846367 4.075138,3.846366 2.963736,2.503943 2.963736,2.503939 3.25746,2.41407 3.257464,2.41407 5.189185,3.093429 5.189188,3.093429 4.792115,2.385322 4.792116,2.385322 4.24728,1.817692 4.24728,1.81769 2.931583,1.1689 2.931582,1.16889 4.874302,1.78326 4.87431,1.78325 9.976525,3.49678 9.97653,3.49678 5.33473,2.00462 5.33472,2.00463 5.18545,2.21273 5.18546,2.21274 4.59487,2.32639 4.59488,2.3264 3.38569,2.10457 3.38569,2.10458 3.87546,2.9291 3.87547,2.92911 2.92524,2.65326 2.92524,2.65325 2.65191,2.92525 2.65192,2.92524 2.57312,3.40099 2.57312,3.40099 2.32659,3.86016 2.32659,3.86016 1.86076,3.85286 1.86076,3.85286 1.33655,3.4083 1.33654,3.40829 1.21056,3.70467 1.21055,3.70467 0.87269,3.26011 0.87269,3.26011 1.0546,4.74198 1.0546,4.74198 1.02977,6.06568 1.02978,6.06568 -0.0739,0.0739 -0.0739,0.0739 z"
       id="path624" />
    <path
       style="fill:#009da3;stroke-width:0.296374"
       d="m 196.49735,250.79693 -3.85286,-3.7613 -2.2228,-1.80189 -2.2228,-1.80189 -2.81555,-1.93882 -2.81555,-1.93882 -2.97494,-1.6564 -2.97494,-1.65641 -3.14048,-1.31574 -3.14048,-1.31575 -3.22035,-1.04093 -3.22035,-1.04093 -4.14923,-1.04451 -4.14923,-1.04451 -4.08502,-0.75424 -4.08503,-0.75423 -5.39893,-0.72589 -5.39893,-0.72591 -5.03835,-0.4605 -5.03836,-0.46052 -10.0767,-0.74164 -10.0767,-0.74165 -5.03835,-0.46234 -5.038345,-0.46234 -4.59379,-0.5852 -4.5938,-0.58519 -2.667358,-0.44367 -2.667362,-0.44366 -4.741978,-1.02795 -4.741978,-1.02796 -3.989791,-1.20427 -3.989788,-1.20427 -4.0123,-1.62927 -4.012297,-1.62927 -3.408297,-1.78109 -3.408297,-1.78109 -3.70467,-2.46884 -3.70467,-2.46884 -2.81555,-2.36048 -2.815549,-2.36049 -2.985049,-3.10148 -2.985048,-3.10147 -2.794238,-3.73054 -2.794237,-3.73054 -1.913939,-3.19808 -1.91394,-3.19807 -1.694166,-3.27284 -1.694167,-3.27284 -1.923313,-4.62827 -1.923313,-4.62827 -1.622388,-5.00387 -1.622388,-5.00388 -1.2055803,-4.74198 -1.20558,-4.74197 -0.752876,-3.55649 -0.752876,-3.55648 -0.15956,-0.68477 -0.159561,-0.68478 1.770804,1.20253 1.770804,1.20253 5.7700683,4.11193 5.770067,4.11193 3.509194,2.22052 3.509194,2.22052 3.111923,1.7839 3.111923,1.7839 4.890165,2.49778 4.890165,2.49778 4.520089,1.9845 4.520089,1.98449 4.963867,1.88416 4.963867,1.88417 5.482912,1.79739 5.482912,1.79739 4.149231,1.18871 4.149231,1.18871 5.927469,1.48036 5.92748,1.48036 12.003115,2.70336 12.00314,2.70336 4.74197,1.18657 4.74198,1.18657 2.66737,0.7445 2.66736,0.74449 4.59379,1.50179 4.59379,1.5018 3.83847,1.61576 3.83846,1.61577 2.38538,1.19848 2.38538,1.19848 2.96374,1.78331 2.96374,1.78331 2.51917,1.77959 2.51918,1.77959 2.2228,1.79297 2.2228,1.79296 3.55648,3.58994 3.55649,3.58994 2.64249,3.3881 2.64248,3.3881 2.42449,3.70467 2.4245,3.70467 1.81754,3.2767 1.81755,3.27671 2.08562,4.34734 2.08562,4.34734 2.52283,6.13185 2.52282,6.13184 -0.0826,0.2266 -0.0826,0.22661 z"
       id="path622" />
  </g>
</svg>
