<?xml version="1.0" encoding="UTF-8" standalone="no"?>
<svg
   class="ionicon"
   viewBox="0 0 512 512"
   version="1.1"
   id="svg4036"
   sodipodi:docname="volume-medium-white.svg"
   inkscape:version="1.1 (c4e8f9ed74, 2021-05-24)"
   xmlns:inkscape="http://www.inkscape.org/namespaces/inkscape"
   xmlns:sodipodi="http://sodipodi.sourceforge.net/DTD/sodipodi-0.dtd"
   xmlns="http://www.w3.org/2000/svg"
   xmlns:svg="http://www.w3.org/2000/svg"
   xmlns:rdf="http://www.w3.org/1999/02/22-rdf-syntax-ns#"
   xmlns:cc="http://creativecommons.org/ns#"
   xmlns:dc="http://purl.org/dc/elements/1.1/">
  <defs
     id="defs4040" />
  <sodipodi:namedview
     id="namedview4038"
     pagecolor="#ffffff"
     bordercolor="#666666"
     borderopacity="1.0"
     inkscape:pageshadow="2"
     inkscape:pageopacity="0.0"
     inkscape:pagecheckerboard="0"
     showgrid="false"
     inkscape:zoom="1.6347656"
     inkscape:cx="255.69415"
     inkscape:cy="218.07407"
     inkscape:window-width="1920"
     inkscape:window-height="1052"
     inkscape:window-x="1920"
     inkscape:window-y="591"
     inkscape:window-maximized="1"
     inkscape:current-layer="svg4036" />
  <title
     id="title4030">Volume Medium</title>
  <path
     d="M264 416.19a23.92 23.92 0 01-14.21-4.69l-.66-.51-91.46-75H88a24 24 0 01-24-24V200a24 24 0 0124-24h69.65l91.46-75 .66-.51A24 24 0 01288 119.83v272.34a24 24 0 01-24 24zM352 336a16 16 0 01-14.29-23.18c9.49-18.9 14.3-38 14.3-56.82 0-19.36-4.66-37.92-14.25-56.73a16 16 0 0128.5-14.54C378.2 208.16 384 231.47 384 256c0 23.83-6 47.78-17.7 71.18A16 16 0 01352 336z"
     id="path4032"
     style="stroke:#ffffff;stroke-opacity:1;fill:#ffffff;fill-opacity:1" />
  <path
     d="M400 384a16 16 0 01-13.87-24C405 327.05 416 299.45 416 256c0-44.12-10.94-71.52-29.83-103.95A16 16 0 01413.83 136C434.92 172.16 448 204.88 448 256c0 50.36-13.06 83.24-34.12 120a16 16 0 01-13.88 8z"
     id="path4034"
     style="stroke:#ffffff;stroke-opacity:1;fill:#ffffff;fill-opacity:1" />
  <metadata
     id="metadata4318">
    <rdf:RDF>
      <cc:Work
         rdf:about="">
        <dc:title>Volume Medium</dc:title>
      </cc:Work>
    </rdf:RDF>
  </metadata>
</svg>
