<?xml version="1.0" encoding="UTF-8" standalone="no"?>
<svg
   class="ionicon"
   viewBox="0 0 512 512"
   version="1.1"
   id="svg3505"
   sodipodi:docname="volume-mute-white.svg"
   inkscape:version="1.1 (c4e8f9ed74, 2021-05-24)"
   xmlns:inkscape="http://www.inkscape.org/namespaces/inkscape"
   xmlns:sodipodi="http://sodipodi.sourceforge.net/DTD/sodipodi-0.dtd"
   xmlns="http://www.w3.org/2000/svg"
   xmlns:svg="http://www.w3.org/2000/svg"
   xmlns:rdf="http://www.w3.org/1999/02/22-rdf-syntax-ns#"
   xmlns:cc="http://creativecommons.org/ns#"
   xmlns:dc="http://purl.org/dc/elements/1.1/">
  <defs
     id="defs3509" />
  <sodipodi:namedview
     id="namedview3507"
     pagecolor="#ffffff"
     bordercolor="#666666"
     borderopacity="1.0"
     inkscape:pageshadow="2"
     inkscape:pageopacity="0.0"
     inkscape:pagecheckerboard="0"
     showgrid="false"
     inkscape:zoom="1.6347656"
     inkscape:cx="255.69415"
     inkscape:cy="256"
     inkscape:window-width="1920"
     inkscape:window-height="1052"
     inkscape:window-x="1920"
     inkscape:window-y="591"
     inkscape:window-maximized="1"
     inkscape:current-layer="svg3505" />
  <title
     id="title3497">Volume Mute</title>
  <path
     fill="none"
     stroke="currentColor"
     stroke-linecap="round"
     stroke-miterlimit="10"
     stroke-width="32"
     d="M416 432L64 80"
     id="path3499"
     style="fill:#ffffff;fill-opacity:1;stroke:#ffffff;stroke-opacity:1" />
  <path
     d="M243.33 98.86a23.89 23.89 0 00-25.55 1.82l-.66.51-28.52 23.35a8 8 0 00-.59 11.85l54.33 54.33a8 8 0 0013.66-5.66v-64.49a24.51 24.51 0 00-12.67-21.71zM251.33 335.29L96.69 180.69A16 16 0 0085.38 176H56a24 24 0 00-24 24v112a24 24 0 0024 24h69.76l92 75.31a23.9 23.9 0 0025.87 1.69A24.51 24.51 0 00256 391.45v-44.86a16 16 0 00-4.67-11.3zM352 256c0-24.56-5.81-47.87-17.75-71.27a16 16 0 10-28.5 14.55C315.34 218.06 320 236.62 320 256q0 4-.31 8.13a8 8 0 002.32 6.25l14.36 14.36a8 8 0 0013.55-4.31A146 146 0 00352 256zM416 256c0-51.18-13.08-83.89-34.18-120.06a16 16 0 00-27.64 16.12C373.07 184.44 384 211.83 384 256c0 23.83-3.29 42.88-9.37 60.65a8 8 0 001.9 8.26L389 337.4a8 8 0 0013.13-2.79C411 311.76 416 287.26 416 256z"
     id="path3501"
     style="fill:#ffffff;fill-opacity:1" />
  <path
     d="M480 256c0-74.25-20.19-121.11-50.51-168.61a16 16 0 10-27 17.22C429.82 147.38 448 189.5 448 256c0 46.19-8.43 80.27-22.43 110.53a8 8 0 001.59 9l11.92 11.92a8 8 0 0012.92-2.16C471.6 344.9 480 305 480 256z"
     id="path3503"
     style="fill:#ffffff;fill-opacity:1" />
  <metadata
     id="metadata3895">
    <rdf:RDF>
      <cc:Work
         rdf:about="">
        <dc:title>Volume Mute</dc:title>
      </cc:Work>
    </rdf:RDF>
  </metadata>
</svg>
