<?xml version="1.0" encoding="UTF-8" standalone="no"?>
<svg
   class="ionicon"
   viewBox="0 0 512 512"
   version="1.1"
   id="svg4454"
   sodipodi:docname="volume-low-white.svg"
   inkscape:version="1.1 (c4e8f9ed74, 2021-05-24)"
   xmlns:inkscape="http://www.inkscape.org/namespaces/inkscape"
   xmlns:sodipodi="http://sodipodi.sourceforge.net/DTD/sodipodi-0.dtd"
   xmlns="http://www.w3.org/2000/svg"
   xmlns:svg="http://www.w3.org/2000/svg"
   xmlns:rdf="http://www.w3.org/1999/02/22-rdf-syntax-ns#"
   xmlns:cc="http://creativecommons.org/ns#"
   xmlns:dc="http://purl.org/dc/elements/1.1/">
  <defs
     id="defs4458" />
  <sodipodi:namedview
     id="namedview4456"
     pagecolor="#ffffff"
     bordercolor="#666666"
     borderopacity="1.0"
     inkscape:pageshadow="2"
     inkscape:pageopacity="0.0"
     inkscape:pagecheckerboard="0"
     showgrid="false"
     inkscape:zoom="1.6347656"
     inkscape:cx="255.69415"
     inkscape:cy="256"
     inkscape:window-width="1920"
     inkscape:window-height="1052"
     inkscape:window-x="1920"
     inkscape:window-y="591"
     inkscape:window-maximized="1"
     inkscape:current-layer="svg4454" />
  <title
     id="title4450">Volume Low</title>
  <path
     d="M296 416.19a23.92 23.92 0 01-14.21-4.69l-.66-.51-91.46-75H120a24 24 0 01-24-24V200a24 24 0 0124-24h69.65l91.46-75 .66-.51A24 24 0 01320 119.83v272.34a24 24 0 01-24 24zM384 336a16 16 0 01-14.29-23.18c9.49-18.9 14.3-38 14.3-56.82 0-19.36-4.66-37.92-14.25-56.73a16 16 0 0128.5-14.54C410.2 208.16 416 231.47 416 256c0 23.83-6 47.78-17.7 71.18A16 16 0 01384 336z"
     id="path4452"
     style="fill:#ffffff;fill-opacity:1" />
  <metadata
     id="metadata4574">
    <rdf:RDF>
      <cc:Work
         rdf:about="">
        <dc:title>Volume Low</dc:title>
      </cc:Work>
    </rdf:RDF>
  </metadata>
</svg>
